<svg class="animated" id="freepik_stories-appreciation" xmlns="http://www.w3.org/2000/svg" viewBox="0 0 500 500" version="1.1" xmlns:xlink="http://www.w3.org/1999/xlink" xmlns:svgjs="http://svgjs.com/svgjs"><style>svg#freepik_stories-appreciation:not(.animated) .animable {opacity: 0;}svg#freepik_stories-appreciation.animated #freepik--background-complete--inject-147 {animation: 1.5s Infinite  linear heartbeat;animation-delay: 2.5s;}svg#freepik_stories-appreciation.animated #freepik--Shadow--inject-147 {animation: 1s 1 forwards ease-in lightSpeedLeft,1.5s Infinite  linear heartbeat;animation-delay: 0s,1s;}svg#freepik_stories-appreciation.animated #freepik--character-2--inject-147 {animation: 1s 1 forwards cubic-bezier(.36,-0.01,.5,1.38) lightSpeedRight,1.5s Infinite  linear floating;animation-delay: 0s,3s;}svg#freepik_stories-appreciation.animated #freepik--Character--inject-147 {animation: 0.8s 1 forwards ease-in slideLeft,1.5s Infinite  linear heartbeat;animation-delay: 0s,0.8s;}            @keyframes heartbeat {                0% {                    transform: scale(1);                }                10% {                    transform: scale(1.1);                }                30% {                    transform: scale(1);                }                40% {                    transform: scale(1);                }                50% {                    transform: scale(1.1);                }                60% {                    transform: scale(1);                }                100% {                    transform: scale(1);                }            }                    @keyframes lightSpeedLeft {              from {                transform: translate3d(-50%, 0, 0) skewX(20deg);                opacity: 0;              }              60% {                transform: skewX(-10deg);                opacity: 1;              }              80% {                transform: skewX(2deg);              }              to {                opacity: 1;                transform: translate3d(0, 0, 0);              }            }                    @keyframes lightSpeedRight {              from {                transform: translate3d(50%, 0, 0) skewX(-20deg);                opacity: 0;              }              60% {                transform: skewX(10deg);                opacity: 1;              }              80% {                transform: skewX(-2deg);              }              to {                opacity: 1;                transform: translate3d(0, 0, 0);              }            }                    @keyframes floating {                0% {                    opacity: 1;                    transform: translateY(0px);                }                50% {                    transform: translateY(-10px);                }                100% {                    opacity: 1;                    transform: translateY(0px);                }            }                    @keyframes slideLeft {                0% {                    opacity: 0;                    transform: translateX(-30px);                }                100% {                    opacity: 1;                    transform: translateX(0);                }            }        .animator-hidden { display: none; }</style><g id="freepik--background-complete--inject-147" class="animable animator-active animator-hidden" style="transform-origin: 250px 225.125px;"><rect y="382.4" width="500" height="0.25" style="fill: rgb(240, 240, 240); transform-origin: 250px 382.525px;" id="elxf4lwafalk" class="animable"></rect><rect x="374.74" y="390" width="58.02" height="0.25" style="fill: rgb(240, 240, 240); transform-origin: 403.75px 390.125px;" id="elwyq7p5q2pym" class="animable"></rect><rect x="435.83" y="395" width="9.75" height="0.25" style="fill: rgb(240, 240, 240); transform-origin: 440.705px 395.125px;" id="elj5tygjd6z8" class="animable"></rect><rect x="267.11" y="394.26" width="13.1" height="0.25" style="fill: rgb(240, 240, 240); transform-origin: 273.66px 394.385px;" id="el31e4e8bv23f" class="animable"></rect><rect x="198.27" y="394.26" width="63.09" height="0.25" style="fill: rgb(240, 240, 240); transform-origin: 229.815px 394.385px;" id="elpfehaur0umr" class="animable"></rect><rect x="129.71" y="392.68" width="9.96" height="0.25" style="fill: rgb(240, 240, 240); transform-origin: 134.69px 392.805px;" id="elb0rtylvayua" class="animable"></rect><rect x="320.57" y="388.56" width="16.79" height="0.25" style="fill: rgb(240, 240, 240); transform-origin: 328.965px 388.685px;" id="elernhuhsa9md" class="animable"></rect><rect x="64.93" y="392.56" width="29.4" height="0.25" style="fill: rgb(240, 240, 240); transform-origin: 79.63px 392.685px;" id="elmqe6z4cduw" class="animable"></rect><path d="M237,337.8H43.91a5.71,5.71,0,0,1-5.7-5.71V60.66A5.71,5.71,0,0,1,43.91,55H237a5.71,5.71,0,0,1,5.71,5.71V332.09A5.71,5.71,0,0,1,237,337.8ZM43.91,55.2a5.46,5.46,0,0,0-5.45,5.46V332.09a5.46,5.46,0,0,0,5.45,5.46H237a5.47,5.47,0,0,0,5.46-5.46V60.66A5.47,5.47,0,0,0,237,55.2Z" style="fill: rgb(240, 240, 240); transform-origin: 140.46px 196.4px;" id="el35lp8asjjmo" class="animable"></path><path d="M453.31,337.8H260.21a5.72,5.72,0,0,1-5.71-5.71V60.66A5.72,5.72,0,0,1,260.21,55h193.1A5.71,5.71,0,0,1,459,60.66V332.09A5.71,5.71,0,0,1,453.31,337.8ZM260.21,55.2a5.47,5.47,0,0,0-5.46,5.46V332.09a5.47,5.47,0,0,0,5.46,5.46h193.1a5.47,5.47,0,0,0,5.46-5.46V60.66a5.47,5.47,0,0,0-5.46-5.46Z" style="fill: rgb(240, 240, 240); transform-origin: 356.75px 196.4px;" id="elitl5hkil5lb" class="animable"></path><g id="ellyp1e6wy4gq"><rect x="84.78" y="246.11" width="70.07" height="136.29" style="fill: rgb(250, 250, 250); transform-origin: 119.815px 314.255px; transform: rotate(180deg);" class="animable"></rect></g><g id="el77u9g6ury0j"><rect x="84.78" y="246.11" width="5.78" height="136.29" style="fill: rgb(240, 240, 240); transform-origin: 87.67px 314.255px; transform: rotate(180deg);" class="animable"></rect></g><rect x="149.44" y="250" width="161.33" height="29.44" style="fill: rgb(230, 230, 230); transform-origin: 230.105px 264.72px;" id="eln8xdrnrj2vl" class="animable"></rect><path d="M312.67,382.5H243.5c-11.41,0-13.33-4.12-13.33-16.5V220a1,1,0,0,1,2,0V366c0,11.58,1.33,14.5,11.33,14.5h69.17a1,1,0,1,1,0,2Z" style="fill: rgb(230, 230, 230); transform-origin: 271.92px 300.75px;" id="el0i0xnz18i9mp" class="animable"></path><rect x="84.78" y="246.11" width="218.22" height="10.22" style="fill: rgb(240, 240, 240); transform-origin: 193.89px 251.22px;" id="eluemt5me9ra" class="animable"></rect><g id="elxhrpqzx2pj"><rect x="303" y="246.11" width="70.07" height="136.29" style="fill: rgb(250, 250, 250); transform-origin: 338.035px 314.255px; transform: rotate(180deg);" class="animable"></rect></g><g id="elg6zb7p2i0e"><rect x="303" y="246.11" width="5.78" height="136.29" style="fill: rgb(240, 240, 240); transform-origin: 305.89px 314.255px; transform: rotate(180deg);" class="animable"></rect></g><g id="el2zq9z7xduxr"><rect x="295.44" y="261.41" width="181.84" height="60.13" style="fill: rgb(240, 240, 240); transform-origin: 386.36px 291.475px; transform: rotate(90deg);" class="animable"></rect></g><g id="elt6s234gzgiq"><rect x="359.6" y="205.12" width="53.53" height="53.53" style="fill: rgb(230, 230, 230); transform-origin: 386.365px 231.885px; transform: rotate(90deg);" class="animable"></rect></g><g id="eluyig4bdshp"><rect x="359.6" y="263.45" width="53.53" height="53.53" style="fill: rgb(230, 230, 230); transform-origin: 386.365px 290.215px; transform: rotate(90deg);" class="animable"></rect></g><g id="elfdvtxdrycur"><rect x="359.6" y="321.78" width="53.53" height="53.53" style="fill: rgb(230, 230, 230); transform-origin: 386.365px 348.545px; transform: rotate(90deg);" class="animable"></rect></g><path d="M398.21,204.41H374.52a5.55,5.55,0,0,0,5.55,5.55h12.59A5.55,5.55,0,0,0,398.21,204.41Z" style="fill: rgb(240, 240, 240); transform-origin: 386.365px 207.185px;" id="ell36sk11yw5" class="animable"></path><path d="M398.21,262.74H374.52a5.54,5.54,0,0,0,5.55,5.55h12.59A5.54,5.54,0,0,0,398.21,262.74Z" style="fill: rgb(240, 240, 240); transform-origin: 386.365px 265.515px;" id="el4vsqjfhwz0g" class="animable"></path><path d="M398.21,321.07H374.52a5.54,5.54,0,0,0,5.55,5.55h12.59A5.54,5.54,0,0,0,398.21,321.07Z" style="fill: rgb(240, 240, 240); transform-origin: 386.365px 323.845px;" id="ellcdfs0w4lhe" class="animable"></path><g id="el4pm2n7ly9o"><rect x="333.67" y="283.31" width="181.84" height="16.33" style="fill: rgb(250, 250, 250); transform-origin: 424.59px 291.475px; transform: rotate(90deg);" class="animable"></rect></g><g id="ele2amfhidj3c"><rect x="60.15" y="70.78" width="70.62" height="112.22" style="fill: rgb(230, 230, 230); transform-origin: 95.46px 126.89px; transform: rotate(180deg);" class="animable"></rect></g><g id="eldvdy76io2g"><rect x="57.14" y="70.78" width="70.62" height="112.22" style="fill: rgb(245, 245, 245); transform-origin: 92.45px 126.89px; transform: rotate(180deg);" class="animable"></rect></g><g id="el5zwpmtxmmlq"><rect x="42.18" y="96.99" width="100.55" height="59.79" style="fill: rgb(255, 255, 255); transform-origin: 92.455px 126.885px; transform: rotate(90deg);" class="animable"></rect></g><g id="el9j0v7tj4fqw"><rect x="13.42" y="125.75" width="100.55" height="2.28" style="fill: rgb(230, 230, 230); transform-origin: 63.695px 126.89px; transform: rotate(90deg);" class="animable"></rect></g><g id="elwziw53smvsd"><rect x="59.38" y="142.13" width="66.14" height="7.84" style="fill: rgb(245, 245, 245); transform-origin: 92.45px 146.05px; transform: rotate(180deg);" class="animable"></rect></g><g id="elzs20gf1ojae"><rect x="162.13" y="70.78" width="70.62" height="112.22" style="fill: rgb(230, 230, 230); transform-origin: 197.44px 126.89px; transform: rotate(180deg);" class="animable"></rect></g><g id="el0wd74ixk8lv"><rect x="159.11" y="70.78" width="70.62" height="112.22" style="fill: rgb(245, 245, 245); transform-origin: 194.42px 126.89px; transform: rotate(180deg);" class="animable"></rect></g><g id="eldhhxeb0m4v7"><rect x="144.15" y="96.99" width="100.55" height="59.79" style="fill: rgb(255, 255, 255); transform-origin: 194.425px 126.885px; transform: rotate(90deg);" class="animable"></rect></g><g id="elubs0zt7yo7"><rect x="115.39" y="125.75" width="100.55" height="2.28" style="fill: rgb(230, 230, 230); transform-origin: 165.665px 126.89px; transform: rotate(90deg);" class="animable"></rect></g><g id="el11m3oyegzq7"><rect x="161.35" y="142.13" width="66.14" height="7.84" style="fill: rgb(245, 245, 245); transform-origin: 194.42px 146.05px; transform: rotate(180deg);" class="animable"></rect></g><g id="elzrmel9f3in"><rect x="264.11" y="70.78" width="70.62" height="112.22" style="fill: rgb(230, 230, 230); transform-origin: 299.42px 126.89px; transform: rotate(180deg);" class="animable"></rect></g><g id="eli9d86qi54d9"><rect x="261.09" y="70.78" width="70.62" height="112.22" style="fill: rgb(245, 245, 245); transform-origin: 296.4px 126.89px; transform: rotate(180deg);" class="animable"></rect></g><g id="elssm3dyjind"><rect x="246.13" y="96.99" width="100.55" height="59.79" style="fill: rgb(255, 255, 255); transform-origin: 296.405px 126.885px; transform: rotate(90deg);" class="animable"></rect></g><g id="elg9ryamedkc7"><rect x="217.37" y="125.75" width="100.55" height="2.28" style="fill: rgb(230, 230, 230); transform-origin: 267.645px 126.89px; transform: rotate(90deg);" class="animable"></rect></g><g id="el3twvipxmv5n"><rect x="263.33" y="142.13" width="66.14" height="7.84" style="fill: rgb(245, 245, 245); transform-origin: 296.4px 146.05px; transform: rotate(180deg);" class="animable"></rect></g><g id="eluybqs78htqb"><rect x="366.08" y="70.78" width="70.62" height="112.22" style="fill: rgb(230, 230, 230); transform-origin: 401.39px 126.89px; transform: rotate(180deg);" class="animable"></rect></g><g id="el3ul5qzodfcb"><rect x="363.07" y="70.78" width="70.62" height="112.22" style="fill: rgb(245, 245, 245); transform-origin: 398.38px 126.89px; transform: rotate(180deg);" class="animable"></rect></g><g id="el4y0fs7uv919"><rect x="348.1" y="96.99" width="100.55" height="59.79" style="fill: rgb(255, 255, 255); transform-origin: 398.375px 126.885px; transform: rotate(90deg);" class="animable"></rect></g><g id="elvuxgo4swbs"><rect x="319.35" y="125.75" width="100.55" height="2.28" style="fill: rgb(230, 230, 230); transform-origin: 369.625px 126.89px; transform: rotate(90deg);" class="animable"></rect></g><g id="elrqgxw9s30kb"><rect x="365.31" y="142.13" width="66.14" height="7.84" style="fill: rgb(245, 245, 245); transform-origin: 398.38px 146.05px; transform: rotate(180deg);" class="animable"></rect></g><polygon points="239.4 246.11 254.51 246.11 250.84 216.69 235.72 216.69 239.4 246.11" style="fill: rgb(245, 245, 245); transform-origin: 245.115px 231.4px;" id="elhoqp0hx0gsd" class="animable"></polygon><polygon points="236.06 246.11 251.17 246.11 247.5 216.69 232.38 216.69 236.06 246.11" style="fill: rgb(250, 250, 250); transform-origin: 241.775px 231.4px;" id="elka52arr5gr" class="animable"></polygon><polygon points="203.63 246.11 214.56 246.11 216.66 242.78 205.73 242.78 203.63 246.11" style="fill: rgb(240, 240, 240); transform-origin: 210.145px 244.445px;" id="elzfmpucyrjd" class="animable"></polygon><polygon points="145.07 246.11 211.22 246.11 213.31 242.78 153.99 242.78 145.07 246.11" style="fill: rgb(250, 250, 250); transform-origin: 179.19px 244.445px;" id="eld8kx9vn9esa" class="animable"></polygon><path d="M287.33,237.67h-4.77a8.44,8.44,0,0,0-8.45,8.44h21.67A8.44,8.44,0,0,0,287.33,237.67Z" style="fill: rgb(245, 245, 245); transform-origin: 284.945px 241.89px;" id="eluji52njch2f" class="animable"></path><polygon points="234.22 231.4 249.33 231.4 247.5 216.69 232.38 216.69 234.22 231.4" style="fill: rgb(245, 245, 245); transform-origin: 240.855px 224.045px;" id="el7jvlcmng4ju" class="animable"></polygon><path d="M289.76,227.88H182.83a1.48,1.48,0,0,1-1.47-1.67l8.24-65.92a1.48,1.48,0,0,1,1.47-1.3H298a1.48,1.48,0,0,1,1.47,1.66l-8.24,65.93A1.48,1.48,0,0,1,289.76,227.88Z" style="fill: rgb(240, 240, 240); transform-origin: 240.414px 193.435px;" id="elxy6f46jnov" class="animable"></path><path d="M288.17,227.88H181.24a1.48,1.48,0,0,1-1.47-1.67L188,160.29a1.5,1.5,0,0,1,1.47-1.3H296.41a1.47,1.47,0,0,1,1.47,1.66l-8.24,65.93A1.48,1.48,0,0,1,288.17,227.88Z" style="fill: rgb(250, 250, 250); transform-origin: 238.825px 193.435px;" id="elrrqmck3wfi" class="animable"></path><path d="M183.22,224.23l7.71-61.7a.42.42,0,0,1,.42-.36H294a.41.41,0,0,1,.42.46l-7.72,61.71a.4.4,0,0,1-.41.36H183.63A.42.42,0,0,1,183.22,224.23Z" style="fill: rgb(230, 230, 230); transform-origin: 238.82px 193.435px;" id="eluth7xxzufa" class="animable"></path><path d="M224.75,243.35h19.72a2.45,2.45,0,0,1,2.45,2.45v.31a0,0,0,0,1,0,0H222.3a0,0,0,0,1,0,0v-.31A2.45,2.45,0,0,1,224.75,243.35Z" style="fill: rgb(250, 250, 250); transform-origin: 234.61px 244.73px;" id="eldmrrh17p149" class="animable"></path><path d="M246.52,243.35h11.8a2.45,2.45,0,0,1,2.45,2.45v.31a0,0,0,0,1,0,0h-16.7a0,0,0,0,1,0,0v-.31A2.45,2.45,0,0,1,246.52,243.35Z" style="fill: rgb(245, 245, 245); transform-origin: 252.42px 244.73px;" id="eldlsxj49gm17" class="animable"></path><path d="M123.22,314.25H78.4a15.71,15.71,0,0,1-15.71-15.39L61,216.8a11.45,11.45,0,0,1,11.44-11.68h28.1a11.45,11.45,0,0,1,11.38,10.15Z" style="fill: rgb(230, 230, 230); transform-origin: 92.1088px 259.685px;" id="el14t01wva4vd" class="animable"></path><path d="M98.78,305.67h43.86a6.14,6.14,0,0,1,6.14,6.14V312a2.24,2.24,0,0,1-2.24,2.24H98.78a0,0,0,0,1,0,0v-8.59A0,0,0,0,1,98.78,305.67Z" style="fill: rgb(230, 230, 230); transform-origin: 123.78px 309.945px;" id="elogc05ujebt" class="animable"></path><path d="M156.9,383.52a1,1,0,0,1-1-.79l-14-67.48H117.52l-14,67.48a1,1,0,0,1-2-.41l14.17-68.27a1,1,0,0,1,1-.8h26a1,1,0,0,1,1,.8l14.18,68.27a1,1,0,0,1-.78,1.18A.71.71,0,0,1,156.9,383.52Z" style="fill: rgb(230, 230, 230); transform-origin: 129.695px 348.398px;" id="els4ggewgmrf" class="animable"></path><path d="M117.74,383.52a1,1,0,0,1-1-.79l-14-67.48H78.36l-14,67.48a1,1,0,0,1-2-.41l14.18-68.27a1,1,0,0,1,1-.8h26a1,1,0,0,1,1,.8l14.17,68.27a1,1,0,0,1-.78,1.18A.65.65,0,0,1,117.74,383.52Z" style="fill: rgb(230, 230, 230); transform-origin: 90.5349px 348.397px;" id="ellxrj7p9g55q" class="animable"></path></g><g id="freepik--Shadow--inject-147" class="animable" style="transform-origin: 250px 416.24px;"><ellipse cx="250" cy="416.24" rx="193.89" ry="11.32" style="fill: rgb(245, 245, 245); transform-origin: 250px 416.24px;" id="elwavxknfhl7" class="animable"></ellipse></g><g id="freepik--character-2--inject-147" class="animable" style="transform-origin: 321.799px 282.7px;"><path d="M325.25,212.28c-.75,5.84-1.57,11.71-2.44,17.55l-2.61,17.76a15.33,15.33,0,0,1-2.53,6,19.57,19.57,0,0,1-4.13,4.23,31.9,31.9,0,0,1-9.18,4.64,55.55,55.55,0,0,1-9.27,2.18c-1.55.24-3.09.4-4.64.53s-3.05.21-4.7.21l-.51-5.64c2.69-.62,5.54-1.34,8.21-2.23a60.36,60.36,0,0,0,7.74-3,25.52,25.52,0,0,0,6.29-4,9.73,9.73,0,0,0,1.87-2.31A5.62,5.62,0,0,0,310,246l.29-4.21c.1-1.5.24-3,.37-4.48q.39-4.47.89-8.91c.65-5.94,1.42-11.83,2.35-17.74Z" style="fill: rgb(228, 137, 123); transform-origin: 305.245px 238.02px;" id="elzt61eixtga8" class="animable"></path><path d="M318.78,203.33s-8.9,22.78-.45,65.21h40.36c.27-6.2-3.62-36.41,2.36-65.6a104.35,104.35,0,0,0-13.51-1.7,146.34,146.34,0,0,0-17.15,0A75.28,75.28,0,0,0,318.78,203.33Z" style="fill: rgb(64, 123, 255); transform-origin: 337.869px 234.764px;" id="el6nzvj72jfp8" class="animable"></path><g id="elx37cgneuqim"><path d="M318.78,203.33s-8.9,22.78-.45,65.21h40.36c.27-6.2-3.62-36.41,2.36-65.6a104.35,104.35,0,0,0-13.51-1.7,146.34,146.34,0,0,0-17.15,0A75.28,75.28,0,0,0,318.78,203.33Z" style="opacity: 0.2; transform-origin: 337.869px 234.764px;" class="animable"></path></g><path d="M327.74,208.49c2.54,6.75-3.55,29.38-3.55,29.38l-16.76-8.38s.79-11.28,4.63-20S325,201.09,327.74,208.49Z" style="fill: rgb(64, 123, 255); transform-origin: 317.895px 220.406px;" id="elgjjb91m8zna" class="animable"></path><g id="ele8zm8x6c0w6"><path d="M327.74,208.49c2.54,6.75-3.55,29.38-3.55,29.38l-16.76-8.38s.79-11.28,4.63-20S325,201.09,327.74,208.49Z" style="opacity: 0.2; transform-origin: 317.895px 220.406px;" class="animable"></path></g><polygon points="366.54 406.94 358.99 406.94 353.11 389.47 360.66 389.47 366.54 406.94" style="fill: rgb(228, 137, 123); transform-origin: 359.825px 398.205px;" id="elsco9puvfd4t" class="animable"></polygon><polygon points="303.9 389.47 304.93 398.48 312.48 398.48 311.44 389.47 303.9 389.47" style="fill: rgb(206, 111, 100); transform-origin: 308.19px 393.975px;" id="el8mdbsgo4e62" class="animable"></polygon><polygon points="360.66 389.47 353.11 389.47 356.15 398.48 363.69 398.48 360.66 389.47" style="fill: rgb(206, 111, 100); transform-origin: 358.4px 393.975px;" id="el15mugf33578" class="animable"></polygon><path d="M332.65,268.54s-15,42-10.29,63.61c5.14,23.65,30.24,64.58,30.24,64.58h13.82s-18.49-39-21.43-62.43c-3.19-25.42,13.7-46.86,13.7-65.76Z" style="fill: rgb(64, 123, 255); transform-origin: 343.932px 332.635px;" id="eliwxwhq8n6e" class="animable"></path><g id="elp1mkdpo423"><path d="M332.65,268.54s-15,42-10.29,63.61c5.14,23.65,30.24,64.58,30.24,64.58h13.82s-18.49-39-21.43-62.43c-3.19-25.42,13.7-46.86,13.7-65.76Z" style="opacity: 0.7; transform-origin: 343.932px 332.635px;" class="animable"></path></g><polygon points="313.44 406.94 305.9 406.94 303.89 389.47 311.44 389.47 313.44 406.94" style="fill: rgb(228, 137, 123); transform-origin: 308.665px 398.205px;" id="el1uu2qnglsuf" class="animable"></polygon><path d="M318.33,268.54s-29.41,40.77-28.59,63.77c.85,23.93,12.36,64.42,12.36,64.42h12.78s-5.23-39.09-4.67-62.59c.62-25.62,34.65-45.84,34.65-65.6Z" style="fill: rgb(64, 123, 255); transform-origin: 317.292px 332.635px;" id="el4beivtj4u4j" class="animable"></path><g id="eloza5fkq686l"><path d="M318.33,268.54s-29.41,40.77-28.59,63.77c.85,23.93,12.36,64.42,12.36,64.42h12.78s-5.23-39.09-4.67-62.59c.62-25.62,34.65-45.84,34.65-65.6Z" style="opacity: 0.7; transform-origin: 317.292px 332.635px;" class="animable"></path></g><path d="M358,406.06h9.2a.65.65,0,0,1,.64.52l1.49,6.7a1.11,1.11,0,0,1-1.1,1.35c-3-.05-5.12-.23-8.85-.23-2.29,0-7,.24-10.18.24s-3.58-3.13-2.28-3.41c5.81-1.28,8-3,9.86-4.7A1.82,1.82,0,0,1,358,406.06Z" style="fill: rgb(38, 50, 56); transform-origin: 357.791px 410.35px;" id="elfsl4hs2upv8" class="animable"></path><path d="M306,406.06h8.24a.67.67,0,0,1,.65.52l1.49,6.7a1.11,1.11,0,0,1-1.09,1.35c-3-.05-7.27-.23-11-.23-4.37,0-8.14.24-13.26.24-3.1,0-4-3.13-2.66-3.41,5.9-1.3,10.72-1.43,15.82-4.58A3.48,3.48,0,0,1,306,406.06Z" style="fill: rgb(38, 50, 56); transform-origin: 302.087px 410.35px;" id="el70jixoyqrac" class="animable"></path><path d="M289.25,259.05l-8.23.55,3.85,8.83a7.24,7.24,0,0,0,6.77-5.29Z" style="fill: rgb(228, 137, 123); transform-origin: 286.33px 263.74px;" id="el3jspoa7icr9" class="animable"></path><polygon points="276.57 262.39 281.14 268.57 284.87 268.43 281.02 259.6 276.57 262.39" style="fill: rgb(228, 137, 123); transform-origin: 280.72px 264.085px;" id="el8nk2mnhol3x" class="animable"></polygon><g id="el0ln1220m8xk"><path d="M352.82,216.89c1.32-6.66,3.89-5.51,6.32-2.23a210.05,210.05,0,0,0-1.44,26.61C356,238.45,350.62,228.05,352.82,216.89Z" style="opacity: 0.2; transform-origin: 355.72px 226.653px;" class="animable"></path></g><path d="M345.84,181.92c-1.08,5.52-2.16,15.63,1.7,19.32,0,0-1.51,5.59-11.77,5.59-11.27,0-5.38-5.59-5.38-5.59,6.15-1.47,6-6,4.92-10.33Z" style="fill: rgb(228, 137, 123); transform-origin: 338.196px 194.375px;" id="elc3u5ypfwf6p" class="animable"></path><path d="M341.55,185.59l-6.24,5.32a17.15,17.15,0,0,1,.53,3c2.35-.34,5.58-2.92,5.83-5.38A8.17,8.17,0,0,0,341.55,185.59Z" style="fill: rgb(206, 111, 100); transform-origin: 338.53px 189.75px;" id="el1j4v283xbqb" class="animable"></path><path d="M332.45,160.73c-3.93.93-8.07,12.35-3.79,15.5S339.88,159,332.45,160.73Z" style="fill: rgb(38, 50, 56); transform-origin: 331.287px 168.594px;" id="el9lanjqj704k" class="animable"></path><path d="M347.44,175.4c-2.19,7.16-3.11,11.46-7.68,14.31-6.86,4.29-15-1.19-15-8.86,0-6.91,3.59-17.45,11.4-18.64A10.21,10.21,0,0,1,347.44,175.4Z" style="fill: rgb(228, 137, 123); transform-origin: 336.341px 176.653px;" id="elcnr0766tu89" class="animable"></path><path d="M345.22,182.4c-4.21.66-7.53-15,3.53-16.21C362.16,164.67,352,181.34,345.22,182.4Z" style="fill: rgb(38, 50, 56); transform-origin: 348.292px 174.256px;" id="eltnuhgmta879" class="animable"></path><path d="M350.56,169.91c-5.29.1-20.76-3.07-22.76-11.65-.82-3.52,5.27-8.12,11.41-7.43-8.11,3.56-1.74,9.25,6.86,8.5C355.9,158.46,357.7,169.78,350.56,169.91Z" style="fill: rgb(38, 50, 56); transform-origin: 341.311px 160.336px;" id="elmbf577klcm" class="animable"></path><path d="M352.91,166.92s5.34-.39,4,4.37A6,6,0,0,0,352.91,166.92Z" style="fill: rgb(38, 50, 56); transform-origin: 355.018px 169.101px;" id="elgrcpdud8qsa" class="animable"></path><path d="M351.48,166.75s4.59,2.77,5.52-2.1A6.06,6.06,0,0,1,351.48,166.75Z" style="fill: rgb(38, 50, 56); transform-origin: 354.24px 166.092px;" id="el591nakf8l7x" class="animable"></path><path d="M348.8,184.2a7.14,7.14,0,0,1-5.05,2c-2.49-.05-3-2.45-1.73-4.43,1.16-1.78,3.86-3.91,6.07-2.9S350.43,182.57,348.8,184.2Z" style="fill: rgb(228, 137, 123); transform-origin: 345.626px 182.405px;" id="elbofsro28jqi" class="animable"></path><polygon points="350.15 397.03 368.22 397.03 368.22 392.17 348.02 391.86 350.15 397.03" style="fill: rgb(64, 123, 255); transform-origin: 358.12px 394.445px;" id="elwd88ylx4lf" class="animable"></polygon><polygon points="299.25 397.03 317.31 397.03 317.31 392.11 297.12 391.86 299.25 397.03" style="fill: rgb(64, 123, 255); transform-origin: 307.215px 394.445px;" id="elriszkwoid1" class="animable"></polygon><path d="M335.93,174.79c-.14.59-.57,1-1,.9s-.58-.65-.44-1.24.57-1,1-.9S336.07,174.2,335.93,174.79Z" style="fill: rgb(38, 50, 56); transform-origin: 335.21px 174.62px;" id="elq3vacslwsad" class="animable"></path><path d="M329.24,173.18c-.14.6-.57,1-1,.91s-.58-.65-.44-1.24.57-1,1-.91S329.38,172.59,329.24,173.18Z" style="fill: rgb(38, 50, 56); transform-origin: 328.52px 173.015px;" id="elmeg5dyv3nm" class="animable"></path><path d="M331.3,174a21.78,21.78,0,0,1-4.05,4.38,3.51,3.51,0,0,0,2.7,1.21Z" style="fill: rgb(222, 87, 83); transform-origin: 329.275px 176.795px;" id="elw3fsou5aabr" class="animable"></path><path d="M332.63,181.79a5.89,5.89,0,0,1-1.34-.16.19.19,0,0,1-.14-.22.18.18,0,0,1,.22-.13,4.8,4.8,0,0,0,4.26-.92.18.18,0,0,1,.25.26A4.93,4.93,0,0,1,332.63,181.79Z" style="fill: rgb(38, 50, 56); transform-origin: 333.541px 181.05px;" id="el1xx4wb4jo0c" class="animable"></path><path d="M338.54,173.13a.37.37,0,0,1-.32-.22,2.84,2.84,0,0,0-2-1.69.35.35,0,0,1-.29-.41.36.36,0,0,1,.41-.3,3.53,3.53,0,0,1,2.48,2.11.36.36,0,0,1-.18.48A.4.4,0,0,1,338.54,173.13Z" style="fill: rgb(38, 50, 56); transform-origin: 337.389px 171.818px;" id="el9lnzt0xcjcb" class="animable"></path><path d="M327,170.19a.34.34,0,0,1-.23-.08.36.36,0,0,1-.05-.5,3.54,3.54,0,0,1,3-1.36.36.36,0,0,1,.31.4.35.35,0,0,1-.39.31,2.84,2.84,0,0,0-2.34,1.1A.34.34,0,0,1,327,170.19Z" style="fill: rgb(38, 50, 56); transform-origin: 328.337px 169.218px;" id="elhe0kwkidari" class="animable"></path><path d="M355.49,407.38A2.32,2.32,0,0,1,354,407a1.08,1.08,0,0,1-.37-.95.56.56,0,0,1,.3-.5c.83-.43,3.27,1.06,3.55,1.24a.18.18,0,0,1,.08.18.18.18,0,0,1-.14.14A8.6,8.6,0,0,1,355.49,407.38Zm-1.12-1.56a.41.41,0,0,0-.23.05.21.21,0,0,0-.12.2.72.72,0,0,0,.25.65,3.58,3.58,0,0,0,2.67.14A7.23,7.23,0,0,0,354.37,405.82Z" style="fill: rgb(64, 123, 255); transform-origin: 355.592px 406.431px;" id="elboa60uwnz7l" class="animable"></path><path d="M357.42,407.12a.11.11,0,0,1-.08,0c-.79-.42-2.29-2.07-2.13-2.91a.56.56,0,0,1,.56-.47,1,1,0,0,1,.77.23c.87.71,1,2.89,1.06,3a.21.21,0,0,1-.08.17A.17.17,0,0,1,357.42,407.12Zm-1.52-3.06h-.08c-.24,0-.25.14-.26.18-.1.5.86,1.75,1.64,2.34a4.34,4.34,0,0,0-.89-2.37A.65.65,0,0,0,355.9,404.06Z" style="fill: rgb(64, 123, 255); transform-origin: 356.399px 405.437px;" id="elzjjfazbii9a" class="animable"></path><path d="M302.82,407.38a2.88,2.88,0,0,1-1.84-.46,1,1,0,0,1-.33-.87.6.6,0,0,1,.29-.48c.92-.51,3.95,1,4.3,1.21a.18.18,0,0,1,.09.18.17.17,0,0,1-.14.15A12.58,12.58,0,0,1,302.82,407.38Zm-1.37-1.56a.62.62,0,0,0-.33.07.22.22,0,0,0-.12.19.68.68,0,0,0,.22.57c.47.41,1.71.48,3.37.21A9.72,9.72,0,0,0,301.45,405.82Z" style="fill: rgb(64, 123, 255); transform-origin: 302.987px 406.429px;" id="el7yrwwlwomj3" class="animable"></path><path d="M305.15,407.12l-.07,0c-.91-.41-2.71-2-2.58-2.89,0-.2.18-.45.67-.5a1.28,1.28,0,0,1,1,.3c1,.79,1.16,2.82,1.17,2.91a.16.16,0,0,1-.07.16A.21.21,0,0,1,305.15,407.12Zm-1.84-3.06h-.1c-.33,0-.35.16-.35.2-.09.52,1.14,1.8,2.07,2.36a4.22,4.22,0,0,0-1-2.33A.92.92,0,0,0,303.31,404.06Z" style="fill: rgb(64, 123, 255); transform-origin: 303.918px 405.421px;" id="el963tmo0vb0h" class="animable"></path><path d="M304.69,211.45a16,16,0,0,1,22.34,4,16.05,16.05,0,1,1,18.35,26.34L319,260.14l-18.34-26.35A16,16,0,0,1,304.69,211.45Z" style="fill: rgb(64, 123, 255); transform-origin: 325.014px 234.347px;" id="elzrt9xtf8b2p" class="animable"></path><g id="elbxh6k9ttgdr"><path d="M304.69,211.45a16,16,0,0,1,22.34,4,16.05,16.05,0,1,1,18.35,26.34L319,260.14l-18.34-26.35A16,16,0,0,1,304.69,211.45Z" style="fill: rgb(255, 255, 255); opacity: 0.3; transform-origin: 325.014px 234.347px;" class="animable"></path></g><path d="M269.72,238.58a13.12,13.12,0,0,1,15.61-10,13.11,13.11,0,0,1,25.61,5.59l-5.59,25.61-25.61-5.59A13.11,13.11,0,0,1,269.72,238.58Z" style="fill: rgb(64, 123, 255); transform-origin: 290.299px 239.171px;" id="el9syg43k5l89" class="animable"></path><g id="el1fh19efvoyz"><path d="M269.72,238.58a13.12,13.12,0,0,1,15.61-10,13.11,13.11,0,0,1,25.61,5.59l-5.59,25.61-25.61-5.59A13.11,13.11,0,0,1,269.72,238.58Z" style="fill: rgb(255, 255, 255); opacity: 0.5; transform-origin: 290.299px 239.171px;" class="animable"></path></g><path d="M285.51,247.87a22.06,22.06,0,0,1,30.59-6.06,22.06,22.06,0,1,1,36.65,24.55L328.21,303l-36.65-24.55A22,22,0,0,1,285.51,247.87Z" style="fill: rgb(64, 123, 255); transform-origin: 319.238px 267.345px;" id="el4as2pjeabk" class="animable"></path><g id="eltadfczledwc"><path d="M285.51,247.87a22.06,22.06,0,0,1,30.59-6.06,22.06,22.06,0,1,1,36.65,24.55L328.21,303l-36.65-24.55A22,22,0,0,1,285.51,247.87Z" style="fill: rgb(255, 255, 255); opacity: 0.7; transform-origin: 319.238px 267.345px;" class="animable"></path></g><path d="M363.92,208.81c.66,1.4,1.2,2.64,1.72,4s1,2.62,1.52,4c1,2.65,1.83,5.34,2.58,8.09a85.18,85.18,0,0,1,1.91,8.39l.36,2.15.26,2.19c.1.73.14,1.48.19,2.22l.08,1.12,0,.28,0,.46c0,.36,0,.67,0,1a15.52,15.52,0,0,1-1.68,5.63,34.12,34.12,0,0,1-2.4,4.07,64.85,64.85,0,0,1-5.41,6.78,108.38,108.38,0,0,1-12.2,11.48l-4-4c3.27-4.17,6.52-8.48,9.47-12.76a73.2,73.2,0,0,0,4-6.46,24.84,24.84,0,0,0,1.44-3.1,6.09,6.09,0,0,0,.5-2.15s0-.05,0,0,0,.06,0,0l0-.23-.14-.9c-.09-.61-.17-1.2-.31-1.82l-.36-1.82-.43-1.84c-.6-2.45-1.3-4.91-2.09-7.36s-1.65-4.9-2.56-7.34c-.44-1.22-.91-2.43-1.39-3.64l-1.43-3.52Z" style="fill: rgb(228, 137, 123); transform-origin: 359.695px 239.74px;" id="elap0oamegti" class="animable"></path><path d="M362.62,203.44c6.73,2.59,11.56,27.21,11.56,27.21l-16,6.31s-5.37-12.37-7.17-21.52C349.08,205.81,355,200.5,362.62,203.44Z" style="fill: rgb(64, 123, 255); transform-origin: 362.411px 219.795px;" id="els8f3zudy9ee" class="animable"></path><g id="elt48p3qdxx6q"><path d="M362.62,203.44c6.73,2.59,11.56,27.21,11.56,27.21l-16,6.31s-5.37-12.37-7.17-21.52C349.08,205.81,355,200.5,362.62,203.44Z" style="opacity: 0.2; transform-origin: 362.411px 219.795px;" class="animable"></path></g><path d="M348.6,265.55l-7.4,2,6.13,7.43s5.93-3.07,4.65-6.4Z" style="fill: rgb(228, 137, 123); transform-origin: 346.68px 270.265px;" id="elh8s8ikrwt58" class="animable"></path><polygon points="335.84 273.7 341.2 279.52 347.33 274.95 341.2 267.52 335.84 273.7" style="fill: rgb(228, 137, 123); transform-origin: 341.585px 273.52px;" id="elj44mwaa35u" class="animable"></polygon></g><g id="freepik--Character--inject-147" class="animable" style="transform-origin: 164.216px 271.169px;"><path d="M193.44,172.37s3.91,1.37-3.92,49.48h-33.3c.56-13.55.58-21.91-5.9-49.72a97.74,97.74,0,0,1,14.14-1.86,105.85,105.85,0,0,1,15.12,0C186.08,170.86,193.44,172.37,193.44,172.37Z" style="fill: rgb(64, 123, 255); transform-origin: 172.368px 195.925px;" id="ele0x3dn29jc5" class="animable"></path><g id="elvgvf75u90zf"><path d="M193.44,172.37s3.91,1.37-3.92,49.48h-33.3c.56-13.55.58-21.91-5.9-49.72a97.74,97.74,0,0,1,14.14-1.86,105.85,105.85,0,0,1,15.12,0C186.08,170.86,193.44,172.37,193.44,172.37Z" style="fill: rgb(255, 255, 255); opacity: 0.6; transform-origin: 172.368px 195.925px;" class="animable"></path></g><path d="M218.73,199.78c-1.77,1.67-3.62,3.35-5.47,4.95s-3.74,3.14-5.64,4.5a29.71,29.71,0,0,1-2.86,1.83,10.54,10.54,0,0,1-2.26,1l-.13-.34-.62-1.65a97.31,97.31,0,0,1-3.65-13.89c-.48-2.38-.81-4.79-1.17-7.19s-.62-4.88-.83-7.16l-8.37.53c.16,2.73.48,5.22.83,7.82s.84,5.11,1.39,7.66a85.74,85.74,0,0,0,4.6,15l.83,1.84.2.45.11.23a3,3,0,0,0,.14.3,7.61,7.61,0,0,0,1.07,1.61,6.35,6.35,0,0,0,1.79,1.42,6.46,6.46,0,0,0,2.14.67,8,8,0,0,0,3.37-.36,15.94,15.94,0,0,0,4.25-2.2,34.26,34.26,0,0,0,3.23-2.6,73.76,73.76,0,0,0,10.22-11.79Z" style="fill: rgb(228, 137, 123); transform-origin: 204.815px 200.618px;" id="el4fbrtiykkt5" class="animable"></path><path d="M193.44,172.37c3.38.86,5.74,14.76,5.74,14.76l-9.31,6.33s-8.93-14-6.33-17.74C186.25,171.85,188.51,171.11,193.44,172.37Z" style="fill: rgb(64, 123, 255); transform-origin: 191.123px 182.633px;" id="eljdxdmxyz2t" class="animable"></path><g id="elrzu3uhec2q"><path d="M193.44,172.37c3.38.86,5.74,14.76,5.74,14.76l-9.31,6.33s-8.93-14-6.33-17.74C186.25,171.85,188.51,171.11,193.44,172.37Z" style="fill: rgb(255, 255, 255); opacity: 0.6; transform-origin: 191.123px 182.633px;" class="animable"></path></g><polygon points="175.16 406.42 183.36 406.42 183.91 387.43 175.71 387.43 175.16 406.42" style="fill: rgb(228, 137, 123); transform-origin: 179.535px 396.925px;" id="el6mn4pgc0s6w" class="animable"></polygon><path d="M183.64,405.47h-9.21a.65.65,0,0,0-.66.56l-1.05,7.28a1.33,1.33,0,0,0,1.32,1.46c3.21,0,4.76-.24,8.81-.24,2.49,0,7.64.26,11.09.26s3.62-3.41,2.19-3.71c-6.43-1.39-9-3.29-11.12-5.11A2.12,2.12,0,0,0,183.64,405.47Z" style="fill: rgb(38, 50, 56); transform-origin: 184.844px 410.13px;" id="elhftpmj5q55e" class="animable"></path><polygon points="183.9 387.43 183.62 397.22 175.42 397.22 175.7 387.43 183.9 387.43" style="fill: rgb(206, 111, 100); transform-origin: 179.66px 392.325px;" id="elhym70gasa5i" class="animable"></polygon><polygon points="117.11 355.57 123.36 360.88 115.98 367.46 109.73 362.15 117.11 355.57" style="fill: rgb(206, 111, 100); transform-origin: 116.545px 361.515px;" id="el12qimirxyva" class="animable"></polygon><path d="M186.72,406.9a14.59,14.59,0,0,1-2.58-.29.21.21,0,0,1-.16-.17.2.2,0,0,1,.1-.2c.37-.19,3.64-1.86,4.65-1.31a.67.67,0,0,1,.33.52,1.09,1.09,0,0,1-.35.94A3.1,3.1,0,0,1,186.72,406.9Zm-1.94-.57c1.82.3,3.17.22,3.67-.22a.73.73,0,0,0,.22-.63.25.25,0,0,0-.13-.21C188,405,186.12,405.68,184.78,406.33Z" style="fill: rgb(64, 123, 255); transform-origin: 186.523px 405.866px;" id="eliwmmoy2dwu" class="animable"></path><path d="M184.17,406.61a.17.17,0,0,1-.11,0,.21.21,0,0,1-.08-.17c0-.09.2-2.3,1.23-3.16a1.41,1.41,0,0,1,1.07-.33c.54,0,.7.32.73.54.15.93-1.78,2.7-2.76,3.14Zm2-3.32a1,1,0,0,0-.67.25,4.52,4.52,0,0,0-1.05,2.53c1-.61,2.31-2,2.22-2.55,0,0,0-.19-.39-.23Z" style="fill: rgb(64, 123, 255); transform-origin: 185.499px 404.786px;" id="el2vgsr945hrn" class="animable"></path><path d="M189.52,221.85S196,285,195.45,310c-.56,26-10.09,85.32-10.09,85.32H174.28s1.75-57.8.77-83.34c-1.07-27.84-9.91-90.14-9.91-90.14Z" style="fill: rgb(64, 123, 255); transform-origin: 180.312px 308.58px;" id="ellmuwhlcm6z" class="animable"></path><g id="elikodfjmke4"><path d="M189.52,221.85S196,285,195.45,310c-.56,26-10.09,85.32-10.09,85.32H174.28s1.75-57.8.77-83.34c-1.07-27.84-9.91-90.14-9.91-90.14Z" style="opacity: 0.5; transform-origin: 180.312px 308.58px;" class="animable"></path></g><path d="M218.64,199.26l4.43-7,2.51,7.95s-3.63,3.81-6.92,2.9Z" style="fill: rgb(228, 137, 123); transform-origin: 222.11px 197.755px;" id="elicjk9cqwnee" class="animable"></path><polygon points="102.81 368.33 109.06 373.64 123.36 360.88 117.11 355.57 102.81 368.33" style="fill: rgb(228, 137, 123); transform-origin: 113.085px 364.605px;" id="elfdcesy1to19" class="animable"></polygon><path d="M110.77,373l-6.06-6.93a.64.64,0,0,0-.85-.13l-6.18,4a1.32,1.32,0,0,0-.23,1.95c2.15,2.38,3.31,3.42,6,6.47,1.64,1.88,3.84,4.79,6.1,7.38s5,.49,4.24-.79c-3.19-5.75-2.42-7.77-2.48-10.59A2.12,2.12,0,0,0,110.77,373Z" style="fill: rgb(38, 50, 56); transform-origin: 105.52px 376.403px;" id="el0817xzrfz395" class="animable"></path><path d="M157.06,147.27c-7,7.79-.51,25.31,11.39,18.35S169.89,152,169.89,152Z" style="fill: rgb(38, 50, 56); transform-origin: 164.157px 157.245px;" id="el2tes4nd2iv1" class="animable"></path><path d="M157.64,164.64a.25.25,0,0,1-.18-.08c-3.16-3.14-4.72-6.44-4.64-9.8a12.11,12.11,0,0,1,3.67-8.09.25.25,0,0,1,.36,0,.25.25,0,0,1,0,.36,11.8,11.8,0,0,0-3.5,7.73c-.08,3.21,1.43,6.38,4.48,9.42a.25.25,0,0,1,0,.36A.25.25,0,0,1,157.64,164.64Z" style="fill: rgb(38, 50, 56); transform-origin: 155.362px 155.617px;" id="elqc44f7krh5" class="animable"></path><path d="M173.25,132.09c-.82,2.67,5.32,7.47,3.8,14.23-.81,3.61.72,7,2.43,8s8.21,1.42,9.54-1.67a23,23,0,0,1-3.8-11.09C184.65,134.21,175.52,124.7,173.25,132.09Z" style="fill: rgb(38, 50, 56); transform-origin: 181.097px 142.237px;" id="elclic3m08819" class="animable"></path><path d="M174.13,129.46c-2.86-5-26.27-.4-18,16.25S174.13,129.46,174.13,129.46Z" style="fill: rgb(38, 50, 56); transform-origin: 164.25px 138.981px;" id="elgbuy7ix3lk" class="animable"></path><path d="M166,153.24c.95,4.87,1.91,13.78-1.5,17,0,0,1.33,4.93,10.37,4.93,9.94,0,4.75-4.93,4.75-4.93-5.42-1.3-5.28-5.32-4.34-9.1Z" style="fill: rgb(228, 137, 123); transform-origin: 172.737px 164.205px;" id="elzxgaualhabi" class="animable"></path><path d="M169.74,156.47l5.5,4.69a15,15,0,0,0-.47,2.69c-2.07-.3-4.92-2.58-5.14-4.75A7.48,7.48,0,0,1,169.74,156.47Z" style="fill: rgb(206, 111, 100); transform-origin: 172.401px 160.16px;" id="elblwv1mqpun" class="animable"></path><path d="M160.83,144.32c1.91,7.91,2.55,11.3,7.31,14.69,7.17,5.09,16.47,1,17-7.3.45-7.49-2.75-19.17-11.14-21A11.09,11.09,0,0,0,160.83,144.32Z" style="fill: rgb(228, 137, 123); transform-origin: 172.827px 145.843px;" id="eln3tu45iso1" class="animable"></path><polygon points="173.32 395.72 186.32 395.72 187.28 391.57 172.71 391.07 173.32 395.72" style="fill: rgb(64, 123, 255); transform-origin: 179.995px 393.395px;" id="elt2qihkparse" class="animable"></polygon><g id="elax0mpr9xuca"><path d="M175.16,237.56c8.18,16.46,1.64,46.47-1.25,57.63-1.48-16.77-4-37.26-5.93-52.32C169.22,234.35,171.39,230,175.16,237.56Z" style="opacity: 0.2; transform-origin: 173.554px 264.427px;" class="animable"></path></g><path d="M173.35,144.4c.12.65.56,1.12,1,1s.68-.67.57-1.32-.56-1.12-1-1S173.24,143.75,173.35,144.4Z" style="fill: rgb(38, 50, 56); transform-origin: 174.135px 144.24px;" id="el8uq5u8nvg" class="animable"></path><path d="M180.72,143.1c.11.65.55,1.12,1,1s.68-.66.57-1.31-.56-1.12-1-1.05S180.6,142.45,180.72,143.1Z" style="fill: rgb(38, 50, 56); transform-origin: 181.504px 142.926px;" id="elqo51tqkbxim" class="animable"></path><path d="M181.1,141.85l1.48-.72S182,142.49,181.1,141.85Z" style="fill: rgb(38, 50, 56); transform-origin: 181.84px 141.576px;" id="eldao1nlxuvtp" class="animable"></path><path d="M179,144.56a17.62,17.62,0,0,0,3.06,3.75,2.88,2.88,0,0,1-2.25.85Z" style="fill: rgb(222, 87, 83); transform-origin: 180.53px 146.863px;" id="el20oc7uurbc" class="animable"></path><path d="M176.84,152.22a5.41,5.41,0,0,1-3.81-1.48.2.2,0,0,1,0-.28.19.19,0,0,1,.27,0,5.24,5.24,0,0,0,4.57,1.27.2.2,0,0,1,.22.16.2.2,0,0,1-.16.23A7.29,7.29,0,0,1,176.84,152.22Z" style="fill: rgb(38, 50, 56); transform-origin: 175.533px 151.312px;" id="el0be4ben14hg" class="animable"></path><path d="M176.23,131.52c-.23,2.78-7.72,5-8.81,11.81-.58,3.64-3.28,6.27-5.22,6.53A11,11,0,0,1,155,147a2.18,2.18,0,0,1,.4-3.26c2.74-1.92,5.64-4.26,6.18-7.88C162.24,131.61,176.87,123.81,176.23,131.52Z" style="fill: rgb(38, 50, 56); transform-origin: 165.347px 139.056px;" id="elswkz77woxe" class="animable"></path><path d="M160.49,151.13a6,6,0,0,0,3.22,3.2c1.94.78,3.13-.89,2.79-2.84-.32-1.75-1.7-4.26-3.73-4.21A2.67,2.67,0,0,0,160.49,151.13Z" style="fill: rgb(228, 137, 123); transform-origin: 163.386px 150.903px;" id="elnzpszy4fyr" class="animable"></path><path d="M170.65,142.43a.58.58,0,0,1-.18,0,.41.41,0,0,1-.17-.53,3.87,3.87,0,0,1,2.84-2.13.39.39,0,0,1,.08.78,3.06,3.06,0,0,0-2.23,1.71A.38.38,0,0,1,170.65,142.43Z" style="fill: rgb(38, 50, 56); transform-origin: 171.917px 141.102px;" id="ellifwmg4qhap" class="animable"></path><path d="M183.39,139.12a.38.38,0,0,1-.28-.12,3.09,3.09,0,0,0-2.63-1,.39.39,0,0,1-.14-.76,3.82,3.82,0,0,1,3.33,1.23.39.39,0,0,1,0,.55A.41.41,0,0,1,183.39,139.12Z" style="fill: rgb(38, 50, 56); transform-origin: 181.928px 138.164px;" id="elueb5rm3s8k" class="animable"></path><path d="M161,204.28c-4,2-8.12,4.16-12.13,5.79-.76.32-1.52.59-2.25.83.08-.47.15-.94.23-1.41.38-2.12.84-4.25,1.42-6.38s1.17-4.28,1.83-6.41c1.36-4.23,2.86-8.55,4.43-12.64l-7.76-3.17a129.76,129.76,0,0,0-4.65,13.41,91.74,91.74,0,0,0-3,14c-.12,1.23-.27,2.45-.3,3.73l-.05.94a7.25,7.25,0,0,0,.15,1.89,5.38,5.38,0,0,0,.62,1.49,4.93,4.93,0,0,0,1.25,1.36,5.22,5.22,0,0,0,2.6,1,7,7,0,0,0,1.69,0,11.68,11.68,0,0,0,1.27-.27,15.65,15.65,0,0,0,2-.71,30.26,30.26,0,0,0,3.42-1.7,78.27,78.27,0,0,0,11.57-8.3Z" style="fill: rgb(228, 137, 123); transform-origin: 151.05px 199.826px;" id="elxbbsfbk5aco" class="animable"></path><path d="M113,377h-.12c-1-.11-2-1.75-2.55-2.71a.2.2,0,0,1,0-.22.19.19,0,0,1,.2-.06c.33.09,3.17.91,3.48,1.91a.67.67,0,0,1-.16.65A1.16,1.16,0,0,1,113,377Zm-2.1-2.49c.72,1.26,1.47,2,2,2.1a.76.76,0,0,0,.66-.31.28.28,0,0,0,.07-.28C113.5,375.45,112,374.83,110.91,374.47Z" style="fill: rgb(64, 123, 255); transform-origin: 112.167px 375.501px;" id="eln9w7orv6mp" class="animable"></path><path d="M111.81,374.5a4.58,4.58,0,0,1-1.37-.17.2.2,0,0,1-.12-.15.19.19,0,0,1,.06-.18c.08-.07,1.88-1.6,3-1.46a1,1,0,0,1,.74.45.69.69,0,0,1,0,.85A3.38,3.38,0,0,1,111.81,374.5Zm-.88-.45c1,.18,2.59,0,2.94-.45.06-.07.11-.19,0-.39a.64.64,0,0,0-.47-.29A4.54,4.54,0,0,0,110.93,374.05Z" style="fill: rgb(64, 123, 255); transform-origin: 112.291px 373.522px;" id="el5xg5ojlm2fu" class="animable"></path><path d="M173.74,143.16l1.48-.73S174.63,143.79,173.74,143.16Z" style="fill: rgb(38, 50, 56); transform-origin: 174.48px 142.878px;" id="elkkse9715pr" class="animable"></path><path d="M180.73,221.85s-7.54,65.66-13.24,86.74c-6.76,25-48.77,58.7-48.77,58.7l-8.52-7.23s30.45-36.59,35.62-49.77c11-28.14,1.59-70.08,10.4-88.44Z" style="fill: rgb(64, 123, 255); transform-origin: 145.465px 294.57px;" id="el3hx5zkq7uie" class="animable"></path><g id="eldfxucsofdpi"><path d="M180.73,221.85s-7.54,65.66-13.24,86.74c-6.76,25-48.77,58.7-48.77,58.7l-8.52-7.23s30.45-36.59,35.62-49.77c11-28.14,1.59-70.08,10.4-88.44Z" style="opacity: 0.5; transform-origin: 145.465px 294.57px;" class="animable"></path></g><polygon points="108.84 359.67 119.41 368.65 123.36 366.28 111.4 355.16 108.84 359.67" style="fill: rgb(64, 123, 255); transform-origin: 116.1px 361.905px;" id="elqr93t44u52" class="animable"></polygon><path d="M155.73,219.9l-.86,3c-.11.23.16.46.55.46h34.27c.3,0,.55-.14.57-.33l.3-3c0-.21-.24-.38-.57-.38H156.27A.59.59,0,0,0,155.73,219.9Z" style="fill: rgb(64, 123, 255); transform-origin: 172.703px 221.504px;" id="el8deyk3ij21m" class="animable"></path><g id="elvrxq040utrk"><path d="M155.73,219.9l-.86,3c-.11.23.16.46.55.46h34.27c.3,0,.55-.14.57-.33l.3-3c0-.21-.24-.38-.57-.38H156.27A.59.59,0,0,0,155.73,219.9Z" style="fill: rgb(255, 255, 255); opacity: 0.2; transform-origin: 172.703px 221.504px;" class="animable"></path></g><path d="M160.25,223.67h-.9c-.18,0-.32-.1-.3-.21l.42-3.87c0-.12.17-.21.35-.21h.9c.18,0,.32.09.31.21l-.43,3.87C160.59,223.57,160.43,223.67,160.25,223.67Z" style="fill: rgb(64, 123, 255); transform-origin: 160.039px 221.525px;" id="elioi6ak8pfvs" class="animable"></path><path d="M187.15,223.67h-.9c-.18,0-.32-.1-.31-.21l.43-3.87c0-.12.17-.21.35-.21h.9c.18,0,.31.09.3.21l-.42,3.87C187.49,223.57,187.33,223.67,187.15,223.67Z" style="fill: rgb(64, 123, 255); transform-origin: 186.93px 221.525px;" id="ela7yui69qha" class="animable"></path><path d="M173.7,223.67h-.9c-.18,0-.32-.1-.31-.21l.43-3.87c0-.12.17-.21.35-.21h.9c.18,0,.32.09.31.21l-.43,3.87C174,223.57,173.88,223.67,173.7,223.67Z" style="fill: rgb(64, 123, 255); transform-origin: 173.485px 221.525px;" id="elfba0jlmzsfq" class="animable"></path><g id="el2hiswdm1k5c"><path d="M160.25,223.67h-.9c-.18,0-.32-.1-.3-.21l.42-3.87c0-.12.17-.21.35-.21h.9c.18,0,.32.09.31.21l-.43,3.87C160.59,223.57,160.43,223.67,160.25,223.67Z" style="opacity: 0.5; transform-origin: 160.039px 221.525px;" class="animable"></path></g><g id="elxcf2eckntzq"><path d="M187.15,223.67h-.9c-.18,0-.32-.1-.31-.21l.43-3.87c0-.12.17-.21.35-.21h.9c.18,0,.31.09.3.21l-.42,3.87C187.49,223.57,187.33,223.67,187.15,223.67Z" style="opacity: 0.5; transform-origin: 186.93px 221.525px;" class="animable"></path></g><g id="elt2qlvygakxd"><path d="M173.7,223.67h-.9c-.18,0-.32-.1-.31-.21l.43-3.87c0-.12.17-.21.35-.21h.9c.18,0,.32.09.31.21l-.43,3.87C174,223.57,173.88,223.67,173.7,223.67Z" style="opacity: 0.5; transform-origin: 173.485px 221.525px;" class="animable"></path></g><path d="M220.85,178a20.58,20.58,0,0,0-12.38-4.12v-1a21.47,21.47,0,0,1,13,4.32Z" style="fill: rgb(64, 123, 255); transform-origin: 214.97px 175.44px;" id="elue740ldctgt" class="animable"></path><path d="M225.93,183.48a21,21,0,0,0-3.2-3.9l.69-.72a21.92,21.92,0,0,1,3.36,4.08Z" style="fill: rgb(64, 123, 255); transform-origin: 224.755px 181.17px;" id="elknmkvtvo6k8" class="animable"></path><g id="el3rixrj6dbpv"><path d="M220.85,178a20.58,20.58,0,0,0-12.38-4.12v-1a21.47,21.47,0,0,1,13,4.32Z" style="opacity: 0.2; transform-origin: 214.97px 175.44px;" class="animable"></path></g><g id="elredanuqyva"><path d="M225.93,183.48a21,21,0,0,0-3.2-3.9l.69-.72a21.92,21.92,0,0,1,3.36,4.08Z" style="opacity: 0.2; transform-origin: 224.755px 181.17px;" class="animable"></path></g><path d="M168.46,187.31a18.18,18.18,0,0,1,25.44-3.66A18.18,18.18,0,0,1,223,205.44l-21.79,29.1-29.1-21.78A18.18,18.18,0,0,1,168.46,187.31Z" style="fill: rgb(64, 123, 255); transform-origin: 195.631px 205.585px;" id="eld6qgmz7frmr" class="animable"></path><g id="el2vtno5ynk2s"><path d="M168.46,187.31a18.18,18.18,0,0,1,25.44-3.66A18.18,18.18,0,0,1,223,205.44l-21.79,29.1-29.1-21.78A18.18,18.18,0,0,1,168.46,187.31Z" style="opacity: 0.2; transform-origin: 195.631px 205.585px;" class="animable"></path></g><polygon points="168.33 192.9 171.69 199.03 167 203.82 162.61 196.74 168.33 192.9" style="fill: rgb(228, 137, 123); transform-origin: 167.15px 198.36px;" id="el42yqadp7ynl" class="animable"></polygon><path d="M159.86,205.16l2.75-8.42,4.39,7.08s-2.58,4.59-6,4.52Z" style="fill: rgb(228, 137, 123); transform-origin: 163.43px 202.54px;" id="elcmlhcy4s28" class="animable"></path><path d="M150.32,172.13c-3.33,1-7.34,12.5-7.34,12.5l12.94,9.25s4.72-9.59,3.32-13.9C157.78,175.49,154.13,171,150.32,172.13Z" style="fill: rgb(64, 123, 255); transform-origin: 151.24px 182.917px;" id="elvt4llgptd7d" class="animable"></path><g id="elvdog5v2rkzj"><path d="M150.32,172.13c-3.33,1-7.34,12.5-7.34,12.5l12.94,9.25s4.72-9.59,3.32-13.9C157.78,175.49,154.13,171,150.32,172.13Z" style="fill: rgb(255, 255, 255); opacity: 0.6; transform-origin: 151.24px 182.917px;" class="animable"></path></g><polygon points="229.56 189.95 231.31 196.72 225.58 200.22 223.07 192.27 229.56 189.95" style="fill: rgb(228, 137, 123); transform-origin: 227.19px 195.085px;" id="el9lbc1ub6oow" class="animable"></polygon></g><defs>     <filter id="active" height="200%">         <feMorphology in="SourceAlpha" result="DILATED" operator="dilate" radius="2"></feMorphology>                <feFlood flood-color="#32DFEC" flood-opacity="1" result="PINK"></feFlood>        <feComposite in="PINK" in2="DILATED" operator="in" result="OUTLINE"></feComposite>        <feMerge>            <feMergeNode in="OUTLINE"></feMergeNode>            <feMergeNode in="SourceGraphic"></feMergeNode>        </feMerge>    </filter>    <filter id="hover" height="200%">        <feMorphology in="SourceAlpha" result="DILATED" operator="dilate" radius="2"></feMorphology>                <feFlood flood-color="#ff0000" flood-opacity="0.5" result="PINK"></feFlood>        <feComposite in="PINK" in2="DILATED" operator="in" result="OUTLINE"></feComposite>        <feMerge>            <feMergeNode in="OUTLINE"></feMergeNode>            <feMergeNode in="SourceGraphic"></feMergeNode>        </feMerge>            <feColorMatrix type="matrix" values="0   0   0   0   0                0   1   0   0   0                0   0   0   0   0                0   0   0   1   0 "></feColorMatrix>    </filter></defs></svg>